# xmcd
#
# Track frame offsets:
#	150
#	18856
#	36833
#	50878
#	67139
#	83710
#	98680
#	115428
#	132303
#	148072
#	169358
#	180745
#	200665
#	216568
#	233319
#	249449
#	263474
#	281592
#	295867
#	312537
#	329316
#
# Disc length: 4610
#
# Revision: 2
# Processed by: cddbd v1.5.1PL0 Copyright (c) Steve Scherf et al.
# Submitted via: MusiCat 1.1
# Normalized: r1:TDELIM( - )
#
DISCID=43120015
DTITLE=Verzamel Maxi Music - Disc 2 december 2004
DYEAR=1900
DGENRE=
TTITLE0=Eminem - Just lose it
TTITLE1=Destiny's Child - Lose my breath
TTITLE2=Slammer and Smash - Verano de amor
TTITLE3=Antonie Kamerling - Feel
TTITLE4=Gwen Stefanie - What you waiting for ?
TTITLE5=Jules and Raoul - The sound of light
TTITLE6=Brian Mc Fadden - Real to me
TTITLE7=Kelis - Millionare
TTITLE8=Depeche mode - Enjoy the silence
TTITLE9=The Streets - Blinded by the lights
TTITLE10=Danzel - Pump it up
TTITLE11=Rod Stewart - What a wonderfull world
TTITLE12=Britney Spears - My Prerogative
TTITLE13=Usher and Alicia Keys - My boo
TTITLE14=Ronan Keating - I hope you dance
TTITLE15=Chipz - 1001 Arabian Nights
TTITLE16=Anastacia - Welcome to my truth
TTITLE17=U2 - Vertigo
TTITLE18=Cliff Richard - Something is going on
TTITLE19=Freestylers - Get a life
TTITLE20=Boudewijn de Groot - Hoe moet ik het de stad vertellen
EXTD=\n\n
EXTT0=
EXTT1=
EXTT2=
EXTT3=
EXTT4=
EXTT5=
EXTT6=
EXTT7=
EXTT8=
EXTT9=
EXTT10=
EXTT11=
EXTT12=
EXTT13=
EXTT14=
EXTT15=
EXTT16=
EXTT17=
EXTT18=
EXTT19=
EXTT20=
PLAYORDER=
